SplineFontDB: 3.0
FontName: Topmarks-Bold
FullName: Topmarks Bold
FamilyName: Topmarks
Weight: Medium
Copyright: Copyright (c) 2012-13 by vernon adams. All rights reserved.
Version: 
ItalicAngle: 0
UnderlinePosition: 0
UnderlineWidth: 0
Ascent: 1508
Descent: 540
UFOAscent: 1508
UFODescent: -540
LayerCount: 2
Layer: 0 0 "Back"  1
Layer: 1 0 "Fore"  0
FSType: 0
OS2Version: 0
OS2_WeightWidthSlopeOnly: 0
OS2_UseTypoMetrics: 1
CreationTime: 1364588923
ModificationTime: 1364589170
PfmFamily: 17
TTFWeight: 700
TTFWidth: 5
LineGap: 0
VLineGap: 0
OS2TypoAscent: 1508
OS2TypoAOffset: 0
OS2TypoDescent: -540
OS2TypoDOffset: 0
OS2TypoLinegap: 0
OS2WinAscent: 2382
OS2WinAOffset: 0
OS2WinDescent: 1062
OS2WinDOffset: 0
HheadAscent: 0
HheadAOffset: 1
HheadDescent: 0
HheadDOffset: 1
OS2Vendor: 'newt'
Lookup: 258 0 0 "'kern' Horizontal Kerning in Latin lookup 0"  {"'kern' Horizontal Kerning in Latin lookup 0 subtable"  } ['kern' ('latn' <'dflt' > ) ]
Lookup: 258 0 0 "kernHorizontalKerninginLatinloo"  {"kernHorizontalKerninginLatinloo subtable"  } ['kern' ('latn' <'dflt' > ) ]
Lookup: 258 0 0 "pos_pair_kernlatn_0"  {"pos_pair_kernlatn_0 subtable"  } ['kern' ('latn' <'dflt' > ) ]
Lookup: 258 0 0 "pos_pair_kernlatn_2"  {"pos_pair_kernlatn_2 subtable"  } ['kern' ('latn' <'dflt' > ) ]
MarkAttachClasses: 1
DEI: 91125
LangName: 1033 "" "" "" "" "" "" "" "" "vernon adams" "vernon adams" "Copyright (c) 2011 by vernon adams. All rights reserved." 
Encoding: UnicodeBmp
Compacted: 1
UnicodeInterp: none
NameList: AGL For New Fonts
DisplaySize: -48
AntiAlias: 1
FitToEm: 1
WinInfo: 0 22 9
BeginPrivate: 0
EndPrivate
BeginChars: 65549 109

StartChar: A
Encoding: 65 65 0
Width: 1408
VWidth: 0
GlyphClass: 2
Flags: HW
LayerCount: 2
UndoRedoHistory
Layer: 1
Undoes
EndUndoes
Redoes
EndRedoes
EndUndoRedoHistory
Fore
SplineSet
504.5 533 m 1
 578 758 l 1
 703 1129 l 1
 828 758 l 1
 898.5 533 l 1
 504.5 533 l 1
50.5 0 m 1
 324.5 0 l 1
 437.5 335 l 1
 963.5 335 l 1
 1072.5 0 l 1
 1357.5 0 l 1
 829 1456 l 1
 589 1456 l 1
 50.5 0 l 1
EndSplineSet
EndChar

StartChar: B
Encoding: 66 66 1
Width: 1368
VWidth: 0
GlyphClass: 2
Flags: HW
HStem: 0 201<436 919.132> 664 184<436 872.566> 1256 200<436 883.219>
VStem: 186 250<201 664 848 1256> 961 242<927.235 1185.32> 1018 246<288.47 575.138>
LayerCount: 2
UndoRedoHistory
Layer: 1
Undoes
EndUndoes
Redoes
EndRedoes
EndUndoRedoHistory
Fore
SplineSet
436 848 m 1
 656 848 l 2
 871 848 961 915 961 1070 c 0
 961 1203 867 1256 643 1256 c 2
 436 1256 l 1
 436 848 l 1
436 201 m 1
 700 201 l 2
 923 201 1018 272 1018 437 c 0
 1018 594 918 664 685 664 c 2
 436 664 l 1
 436 201 l 1
186 0 m 1
 186 1456 l 1
 633 1456 l 2
 1015 1456 1203 1353 1203 1108 c 0
 1203 928 1132 830 966 782 c 1
 1175 747 1264 637 1264 424 c 0
 1264 131 1078 0 697 0 c 2
 186 0 l 1
EndSplineSet
EndChar

StartChar: C
Encoding: 67 67 2
Width: 1362
VWidth: 0
GlyphClass: 2
Flags: HW
HStem: -24 208<643.901 1060.53> 1272 208<638.248 1020.99>
VStem: 108 266<478.465 986.093>
LayerCount: 2
UndoRedoHistory
Layer: 1
Undoes
EndUndoes
Redoes
EndRedoes
EndUndoRedoHistory
Fore
SplineSet
815 -24 m 0
 397 -24 108 287 108 733 c 0
 108 1185 409 1480 828 1480 c 0
 977 1480 1144 1422 1267 1327 c 1
 1180 1136 l 1
 1105 1197 962 1272 829 1272 c 0
 539 1272 374 1045 374 732 c 0
 374 418 538 184 843 184 c 0
 964 184 1106 232 1205 311 c 1
 1283 125 l 1
 1174 36 973 -24 815 -24 c 0
EndSplineSet
EndChar

StartChar: D
Encoding: 68 68 3
Width: 1538
VWidth: 0
GlyphClass: 2
Flags: HW
HStem: 0 200<436 889.329> 1256 200<436 873.893>
VStem: 186 250<200 1256> 1164 266<462.816 992.684>
LayerCount: 2
UndoRedoHistory
Layer: 1
Undoes
EndUndoes
Redoes
EndRedoes
EndUndoRedoHistory
Fore
SplineSet
186 0 m 1
 186 1456 l 1
 525 1456 l 2
 1119 1456 1430 1240 1430 742 c 0
 1430 225 1148 0 582 0 c 2
 186 0 l 1
436 200 m 1
 598 200 l 2
 1016 200 1164 372 1164 739 c 0
 1164 1092 1004 1256 558 1256 c 2
 436 1256 l 1
 436 200 l 1
EndSplineSet
EndChar

StartChar: E
Encoding: 69 69 4
Width: 1196
VWidth: 0
GlyphClass: 2
Flags: HW
HStem: 0 200<436 1064> 650 193<436 1002> 1256 200<436 1044>
VStem: 186 250<200 650 843 1256>
LayerCount: 2
UndoRedoHistory
Layer: 1
Undoes
EndUndoes
Redoes
EndRedoes
EndUndoRedoHistory
Fore
SplineSet
186 0 m 1
 186 1456 l 1
 1044 1456 l 1
 1044 1256 l 1
 436 1256 l 1
 436 843 l 1
 1002 843 l 1
 1002 650 l 1
 436 650 l 1
 436 200 l 1
 1064 200 l 1
 1064 0 l 1
 186 0 l 1
EndSplineSet
EndChar

StartChar: F
Encoding: 70 70 5
Width: 1151
VWidth: 0
GlyphClass: 2
Flags: HW
HStem: 0 21G<186 436> 672 193<436 994> 1256 200<436 1027>
VStem: 186 250<0 672 865 1256>
LayerCount: 2
UndoRedoHistory
Layer: 1
Undoes
EndUndoes
Redoes
EndRedoes
EndUndoRedoHistory
Fore
SplineSet
186 0 m 1
 186 1456 l 1
 1027 1456 l 1
 1027 1256 l 1
 436 1256 l 1
 436 865 l 1
 994 865 l 1
 994 672 l 1
 436 672 l 1
 436 0 l 1
 186 0 l 1
EndSplineSet
EndChar

StartChar: G
Encoding: 71 71 6
Width: 1486
VWidth: 0
GlyphClass: 2
Flags: HW
HStem: -24 208<636.924 1085.3> 595 178<804 1088> 1272 208<655.604 1084.55>
VStem: 108 266<463.766 955.159> 1088 244<210.112 595>
LayerCount: 2
UndoRedoHistory
Layer: 1
Undoes
EndUndoes
Redoes
EndRedoes
EndUndoRedoHistory
Fore
SplineSet
828 -24 m 0
 400 -24 108 256 108 687 c 0
 108 1159 414 1480 850 1480 c 0
 1093 1480 1233 1403 1316 1351 c 1
 1229 1162 l 1
 1176 1191 1026 1272 859 1272 c 0
 556 1272 374 1033 374 701 c 0
 374 391 554 184 840 184 c 0
 935 184 1025 198 1088 227 c 1
 1088 595 l 1
 804 595 l 1
 804 773 l 1
 1332 773 l 1
 1332 78 l 1
 1200 16 997 -24 828 -24 c 0
EndSplineSet
EndChar

StartChar: H
Encoding: 72 72 7
Width: 1541
VWidth: 0
GlyphClass: 2
Flags: HW
HStem: 0 21G<186 436 1105 1355> 635 215<436 1105> 1436 20G<186 436 1105 1355>
VStem: 186 250<0 635 850 1456> 1105 250<0 635 850 1456>
LayerCount: 2
UndoRedoHistory
Layer: 1
Undoes
EndUndoes
Redoes
EndRedoes
EndUndoRedoHistory
Fore
SplineSet
186 0 m 1
 186 1456 l 1
 436 1456 l 1
 436 850 l 1
 1105 850 l 1
 1105 1456 l 1
 1355 1456 l 1
 1355 0 l 1
 1105 0 l 1
 1105 635 l 1
 436 635 l 1
 436 0 l 1
 186 0 l 1
EndSplineSet
EndChar

StartChar: I
Encoding: 73 73 8
Width: 650
VWidth: 0
GlyphClass: 2
Flags: HW
HStem: 0 21G<200 450> 1436 20G<200 450>
VStem: 200 250<0 1456>
LayerCount: 2
UndoRedoHistory
Layer: 1
Undoes
EndUndoes
Redoes
EndRedoes
EndUndoRedoHistory
Fore
SplineSet
200 0 m 1
 200 1456 l 1
 450 1456 l 1
 450 0 l 1
 200 0 l 1
EndSplineSet
EndChar

StartChar: J
Encoding: 74 74 9
Width: 1127
VWidth: 0
GlyphClass: 2
Flags: HW
HStem: -24 208<241.842 521.565>
VStem: 605 243<271.994 447>
LayerCount: 2
UndoRedoHistory
Layer: 1
Undoes
EndUndoes
Redoes
EndRedoes
EndUndoRedoHistory
Fore
SplineSet
24 145 m 1
 133 21 264 -24 419 -24 c 0
 642 -24 848 125 848 447 c 2
 848 1256 l 1
 1111 1256 l 1
 1111 1456 l 1
 241 1456 l 1
 241 1256 l 1
 605 1256 l 1
 605 428 l 2
 605 268 516 188 402 184 c 0
 319 181 223 217 142 310 c 1
 24 145 l 1
EndSplineSet
EndChar

StartChar: J.alt
Encoding: 65537 -1 10
Width: 1627
VWidth: 0
GlyphClass: 2
Flags: HW
HStem: -40 173<257.64 570.83>
VStem: 701 202<298.237 573>
LayerCount: 2
UndoRedoHistory
Layer: 1
Undoes
EndUndoes
Redoes
EndRedoes
EndUndoRedoHistory
Fore
SplineSet
423 -40 m 0
 494 -40 558 -28 616 0 c 1
 805 83 903 287 903 573 c 2
 903 1696 l 1
 701 1696 l 1
 701 559 l 2
 701 334 632 133 430 133 c 0
 330 133 258 170 195 218 c 1
 135 82 l 1
 206 11 296 -40 423 -40 c 0
EndSplineSet
EndChar

StartChar: K
Encoding: 75 75 11
Width: 1279
VWidth: 0
GlyphClass: 2
Flags: HW
HStem: 0 21G<186 436 948.493 1283> 1436 20G<186 436 928.943 1249>
VStem: 186 250<0 681 822 1456>
LayerCount: 2
UndoRedoHistory
Layer: 1
Undoes
EndUndoes
Redoes
EndRedoes
EndUndoRedoHistory
Fore
SplineSet
186 0 m 1
 186 1456 l 1
 436 1456 l 1
 436 822 l 1
 945 1456 l 1
 1249 1456 l 1
 673 773 l 1
 1283 0 l 1
 964 0 l 1
 436 681 l 1
 436 0 l 1
 186 0 l 1
EndSplineSet
EndChar

StartChar: L
Encoding: 76 76 12
Width: 1073
VWidth: 0
GlyphClass: 2
Flags: HW
HStem: 0 200<436 1042> 1436 20G<186 436>
VStem: 186 250<200 1456>
LayerCount: 2
UndoRedoHistory
Layer: 1
Undoes
EndUndoes
Redoes
EndRedoes
EndUndoRedoHistory
Fore
SplineSet
186 0 m 1
 186 1456 l 1
 436 1456 l 1
 436 200 l 1
 1042 200 l 1
 1042 0 l 1
 186 0 l 1
EndSplineSet
EndChar

StartChar: M
Encoding: 77 77 13
Width: 1877
VWidth: 0
GlyphClass: 2
Flags: HW
HStem: 0 21G<186 436 1441 1691> 1436 20G<186 489.573 1388.34 1691>
VStem: 186 250<0 1102> 1441 250<0 1085>
LayerCount: 2
UndoRedoHistory
Layer: 1
Undoes
EndUndoes
Redoes
EndRedoes
EndUndoRedoHistory
Fore
SplineSet
186 0 m 1
 186 1456 l 1
 479 1456 l 1
 857 741 l 1
 938.5 569 l 1
 1019 743 l 1
 1399 1456 l 1
 1691 1456 l 1
 1691 0 l 1
 1441 0 l 1
 1441 1085 l 1
 1336 871 l 1
 992.5 229 l 1
 879.5 229 l 1
 540 883 l 1
 436 1102 l 1
 436 0 l 1
 186 0 l 1
EndSplineSet
EndChar

StartChar: N
Encoding: 78 78 14
Width: 1605
VWidth: 0
GlyphClass: 2
Flags: HW
HStem: 0 21G<186 406 1140.56 1419> 1436 20G<186 460.568 1199 1419>
VStem: 186 220<0 1113> 1199 220<340 1456>
LayerCount: 2
UndoRedoHistory
Layer: 1
Undoes
EndUndoes
Redoes
EndRedoes
EndUndoRedoHistory
Fore
SplineSet
186 0 m 1
 186 1456 l 1
 447 1456 l 1
 1082 520 l 1
 1199 340 l 1
 1199 1456 l 1
 1419 1456 l 1
 1419 0 l 1
 1154 0 l 1
 515 951 l 1
 406 1113 l 1
 406 0 l 1
 186 0 l 1
EndSplineSet
EndChar

StartChar: O
Encoding: 79 79 15
Width: 1576
VWidth: 0
GlyphClass: 2
Flags: HW
HStem: -24 208<607.63 963.835> 1272 208<607.63 963.757>
VStem: 108 266<469.212 982.397> 1202 266<471.605 979.275>
LayerCount: 2
UndoRedoHistory
Layer: 1
Undoes
EndUndoes
Redoes
EndRedoes
EndUndoRedoHistory
Fore
SplineSet
785 -24 m 0
 389 -24 108 276 108 726 c 0
 108 1172 389 1480 785 1480 c 0
 1185 1480 1468 1172 1468 726 c 0
 1468 276 1185 -24 785 -24 c 0
785 184 m 0
 1033 184 1203 400 1202 724 c 1
 1202 1054 1033 1272 785 1272 c 0
 537 1272 374 1054 374 724 c 0
 374 400 537 184 785 184 c 0
EndSplineSet
EndChar

StartChar: P
Encoding: 80 80 16
Width: 1272
VWidth: 0
GlyphClass: 2
Flags: HW
HStem: 0 21G<186 436> 559 203<436 856.434> 1256 200<436 845.119>
VStem: 186 250<0 559 762 1256> 951 256<853.073 1165.58>
LayerCount: 2
UndoRedoHistory
Layer: 1
Undoes
EndUndoes
Redoes
EndRedoes
EndUndoRedoHistory
Fore
SplineSet
436 762 m 1
 646 762 l 2
 854 762 951 829 951 1015 c 0
 951 1192 847 1256 628 1256 c 2
 436 1256 l 1
 436 762 l 1
186 0 m 1
 186 1456 l 1
 606 1456 l 2
 1019 1456 1207 1330 1207 1017 c 0
 1207 689 1025 559 629 559 c 2
 436 559 l 1
 436 0 l 1
 186 0 l 1
EndSplineSet
EndChar

StartChar: Q
Encoding: 81 81 17
Width: 1576
VWidth: 0
GlyphClass: 2
Flags: HW
HStem: -24 208<607.63 963.835> 1272 208<607.63 963.757>
VStem: 108 266<469.212 982.397> 1202 266<471.605 979.275>
LayerCount: 2
UndoRedoHistory
Layer: 1
Undoes
EndUndoes
Redoes
EndRedoes
EndUndoRedoHistory
Fore
SplineSet
1233 -425 m 1
 951 13 l 1
 1157 86 l 1
 1411 -312 l 1
 1233 -425 l 1
EndSplineSet
Refer: 15 79 N 1 0 0 1 0 0 2
EndChar

StartChar: R
Encoding: 82 82 18
Width: 1325
VWidth: 0
GlyphClass: 2
Flags: HW
HStem: 0 21G<186 436 994.191 1269> 646 183<436 802.885> 1256 200<436 874.623>
VStem: 186 250<0 646 829 1256> 942 252<907.627 1200.79>
LayerCount: 2
UndoRedoHistory
Layer: 1
Undoes
EndUndoes
Redoes
EndRedoes
EndUndoRedoHistory
Fore
SplineSet
436 829 m 1
 652 829 l 2
 855 829 942 895 942 1062 c 0
 942 1222 857 1256 661 1256 c 2
 436 1256 l 1
 436 829 l 1
186 0 m 1
 186 1456 l 1
 644 1456 l 2
 1018 1456 1194 1343 1194 1077 c 0
 1194 907.406751996 1138.02311467 762.254115895 970.765838246 689.845153705 c 1
 1269 0 l 1
 1002 0 l 1
 749.769662921 646 l 1
 436 646 l 1
 436 0 l 1
 186 0 l 1
EndSplineSet
EndChar

StartChar: S
Encoding: 83 83 19
Width: 1253
VWidth: 0
GlyphClass: 2
Flags: HW
HStem: -24 208<424.64 822.974> 1272 208<471.195 879.095>
VStem: 157 258<984.203 1217.2> 903 236<268.408 508.295>
LayerCount: 2
UndoRedoHistory
Layer: 1
Undoes
EndUndoes
Redoes
EndRedoes
EndUndoRedoHistory
Fore
SplineSet
674 -24 m 0
 507 -24 304 33 165 121 c 1
 224 319 l 1
 400 221 545 184 665 184 c 0
 826 184 903 279 903 385 c 0
 903 486 879 559 555 664 c 1
 234 776 157 899 157 1072 c 0
 157 1289 294 1480 648 1480 c 0
 794 1480 955 1439 1087 1358 c 1
 1017 1164 l 1
 891 1231 772 1272 664 1272 c 0
 472 1272 415 1202 415 1105 c 0
 415 1005 441 955 688 866 c 1
 1034 747 1145 642 1139 391 c 0
 1134 164 989 -24 674 -24 c 0
EndSplineSet
EndChar

StartChar: T
Encoding: 84 84 20
Width: 1189
VWidth: 0
GlyphClass: 2
Flags: HW
HStem: 0 21G<471 719> 1256 200<61 471 719 1129>
VStem: 471 248<0 1256>
LayerCount: 2
UndoRedoHistory
Layer: 1
Undoes
EndUndoes
Redoes
EndRedoes
EndUndoRedoHistory
Fore
SplineSet
471 0 m 1
 471 1256 l 1
 61 1256 l 1
 61 1456 l 1
 1129 1456 l 1
 1129 1256 l 1
 719 1256 l 1
 719 0 l 1
 471 0 l 1
EndSplineSet
EndChar

StartChar: U
Encoding: 85 85 21
Width: 1488
VWidth: 0
GlyphClass: 2
Flags: HW
HStem: -24 208<571.618 919.745> 1436 20G<159 409 1079 1329>
VStem: 159 250<354.714 1456> 1080 249<348.448 1456>
LayerCount: 2
UndoRedoHistory
Layer: 1
Undoes
EndUndoes
Redoes
EndRedoes
EndUndoRedoHistory
Fore
SplineSet
753 -24 m 0
 406 -24 159 208 159 547 c 2
 159 1456 l 1
 409 1456 l 1
 409 536 l 2
 409 322 546 184 752 184 c 0
 947 184 1080 319 1080 529 c 2
 1079 1456 l 1
 1329 1456 l 1
 1329 558 l 2
 1329 213 1092 -24 753 -24 c 0
EndSplineSet
EndChar

StartChar: V
Encoding: 86 86 22
Width: 1315
VWidth: 0
GlyphClass: 2
Flags: HW
HStem: 0 21G<527.747 819.799> 1436 20G<7 285.804 1022.05 1308>
LayerCount: 2
UndoRedoHistory
Layer: 1
Undoes
EndUndoes
Redoes
EndRedoes
EndUndoRedoHistory
Fore
SplineSet
535 0 m 1
 7 1456 l 1
 279 1456 l 1
 560 630 l 1
 675 323 l 1
 782 629 l 1
 1028 1456 l 1
 1308 1456 l 1
 813 0 l 1
 535 0 l 1
EndSplineSet
EndChar

StartChar: W
Encoding: 87 87 23
Width: 2153
VWidth: 0
GlyphClass: 2
Flags: HW
HStem: 0 21G<495.791 729.755 1424.28 1658.2> 1436 20G<50 310.914 994.993 1170.95 1848.23 2103>
LayerCount: 2
UndoRedoHistory
Layer: 1
Undoes
EndUndoes
Redoes
EndRedoes
EndUndoRedoHistory
Fore
SplineSet
502 0 m 1
 50 1456 l 1
 305 1456 l 1
 554 614 l 1
 621 385 l 1
 707 614 l 1
 1002 1456 l 1
 1164 1456 l 1
 1458 610 l 1
 1539 386 l 1
 1611 614 l 1
 1854 1456 l 1
 2103 1456 l 1
 1652 0 l 1
 1431 0 l 1
 1078 1051 l 1
 723 0 l 1
 502 0 l 1
EndSplineSet
EndChar

StartChar: X
Encoding: 88 88 24
Width: 1317
VWidth: 0
GlyphClass: 2
Flags: HW
HStem: 0 21G<-4 283.759 1019.7 1304> 1436 20G<45 336.102 1034.64 1321>
LayerCount: 2
UndoRedoHistory
Layer: 1
Undoes
EndUndoes
Redoes
EndRedoes
EndUndoRedoHistory
Fore
SplineSet
1033 0 m 1
 658 564 l 1
 270 0 l 1
 -4 0 l 1
 535 751 l 1
 45 1456 l 1
 323 1456 l 1
 682 908 l 1
 1048 1456 l 1
 1321 1456 l 1
 805 720 l 1
 1304 0 l 1
 1033 0 l 1
EndSplineSet
EndChar

StartChar: Y
Encoding: 89 89 25
Width: 1219
VWidth: 0
GlyphClass: 2
Flags: HW
HStem: 0 21G<492 742> 1436 20G<-17 265.246 966.692 1236>
VStem: 492 250<0 588>
LayerCount: 2
UndoRedoHistory
Layer: 1
Undoes
EndUndoes
Redoes
EndRedoes
EndUndoRedoHistory
Fore
SplineSet
492 0 m 1
 492 588 l 1
 -17 1456 l 1
 254 1456 l 1
 615 814 l 1
 978 1456 l 1
 1236 1456 l 1
 742 590 l 1
 742 0 l 1
 492 0 l 1
EndSplineSet
EndChar

StartChar: Z
Encoding: 90 90 26
Width: 1219
VWidth: 0
GlyphClass: 2
Flags: HW
HStem: 0 200<395 1124> 1256 200<131 840>
LayerCount: 2
UndoRedoHistory
Layer: 1
Undoes
EndUndoes
Redoes
EndRedoes
EndUndoRedoHistory
Fore
SplineSet
100 0 m 1
 100 198 l 1
 840 1256 l 1
 131 1256 l 1
 131 1456 l 1
 1132 1456 l 1
 1132 1276 l 1
 395 200 l 1
 1124 200 l 1
 1124 0 l 1
 100 0 l 1
EndSplineSet
EndChar

StartChar: a
Encoding: 97 97 27
Width: 1197
VWidth: 0
GlyphClass: 2
Flags: HW
HStem: -22 186<438.14 664.011 1044.45 1131> 861 186<520.536 759.983>
VStem: 104 248<259.996 662.478> 762 242<266.932 429 849 858.281>
LayerCount: 2
UndoRedoHistory
Layer: 1
Undoes
EndUndoes
Redoes
EndRedoes
EndUndoRedoHistory
Fore
SplineSet
535 164 m 0
 428 164 352 288 352 440 c 0
 352 665 469 848 631 861 c 0
 706 867 762 849 762 849 c 1
 762 429 l 2
 762 286 677 164 535 164 c 0
518 -22 m 0
 640 -22 752 46 804 151 c 1
 858 -7 984 -16 1131 -16 c 1
 1163 176 l 1
 1010 176 1004 253 1004 363 c 2
 1004 976 l 1
 960 994 824 1052 668 1047 c 0
 337 1037 104 793 104 431 c 0
 104 170 281 -22 518 -22 c 0
EndSplineSet
EndChar

StartChar: a.alt
Encoding: 65538 -1 28
Width: 2082
VWidth: 0
GlyphClass: 2
Flags: HW
HStem: -40 164<546.873 884.425> -18 168<1281.65 1346> 1059 162<569.556 907.392>
VStem: 165 196<348.029 830.676> 1046 193<311.363 896.451>
LayerCount: 2
UndoRedoHistory
Layer: 1
Undoes
EndUndoes
Redoes
EndRedoes
EndUndoRedoHistory
Fore
SplineSet
697 124 m 0
 501 124 361 313 361 578 c 0
 361 881 505 1059 746 1059 c 0
 937 1059 1046 943 1046 602 c 0
 1046 306 969 124 697 124 c 0
677 -40 m 0
 806 -40 973 1 1074 181 c 1
 1106 40 1244 -18 1346 -18 c 1
 1386 150 l 1
 1325 150 1239 185 1239 322 c 2
 1239 596 l 2
 1239 1077 1006 1221 741 1221 c 0
 392 1221 165 978 165 567 c 0
 165 212 388 -40 677 -40 c 0
EndSplineSet
EndChar

StartChar: ampersand
Encoding: 38 38 29
Width: 1610
VWidth: 0
GlyphClass: 2
Flags: HW
HStem: -36 148<1434.74 1487.36> -21 199<492.712 891.038> 1315 168<569.91 809.129>
VStem: 154 233<268.507 554.927> 331 202<1025.6 1275.63> 849 200<1054.46 1274.7> 1251 192<638.855 871>
LayerCount: 2
UndoRedoHistory
Layer: 1
Undoes
EndUndoes
Redoes
EndRedoes
EndUndoRedoHistory
Fore
SplineSet
656 930 m 1
 593 996 533 1063 533 1174 c 0
 533 1269 603 1315 690 1315 c 0
 777 1315 849 1268 849 1174 c 0
 849 1067 745 981 656 930 c 1
696 178 m 0
 543 178 387 225 387 408 c 0
 387 571 488 618 605 684 c 1
 978 293 l 1
 897 209 825 178 696 178 c 0
680 -21 m 0
 896 -21 1006 42 1117 159 c 1
 1200 72 1324 -14 1477 -36 c 1
 1584 112 l 1
 1389 153 1318 214 1245 289 c 1
 1356 431 1434 632 1443 871 c 1
 1251 919 l 1
 1251 746 1202 563 1109 436 c 1
 775 792 l 1
 909 867 1049 989 1049 1191 c 0
 1049 1376 881.179355477 1483 680 1483 c 0
 495 1483 331 1361 331 1162 c 0
 331 1010 401 928 485 837 c 1
 319 741 154 653 154 397 c 0
 154 126 381.135942484 -21 680 -21 c 0
EndSplineSet
EndChar

StartChar: asciicircum
Encoding: 94 94 30
Width: 1209
VWidth: 0
GlyphClass: 2
Flags: HW
LayerCount: 2
UndoRedoHistory
Layer: 1
Undoes
EndUndoes
Redoes
EndRedoes
EndUndoRedoHistory
Fore
SplineSet
105 570 m 1
 561 1448 l 1
 653 1448 l 1
 1115 570 l 1
 911 570 l 1
 605 1176 l 1
 311 570 l 1
 105 570 l 1
EndSplineSet
EndChar

StartChar: asciitilde
Encoding: 126 126 31
Width: 1654
VWidth: 0
GlyphClass: 2
Flags: HW
HStem: 708 158<948.003 1181.83> 896 158<472.342 731.467>
VStem: 249 135<735.204 793.559> 1270 147<966.684 1033.49>
LayerCount: 2
UndoRedoHistory
Layer: 1
Undoes
EndUndoes
Redoes
EndRedoes
EndUndoRedoHistory
Fore
SplineSet
384 678 m 1
 407 784 468 896 585 896 c 0
 607 896 632 891 659 882 c 0
 750 850 836 797 920 757 c 0
 964 735 1020 708 1075 708 c 0
 1117 708 1155 715 1192 731 c 0
 1312 782 1384 890 1417 1029 c 1
 1270 1075 l 1
 1248 979 1183 866 1076 866 c 0
 1059 866 1039 871 1016 880 c 0
 930 915 846 967 760 1005 c 0
 708 1027 647 1054 583 1054 c 0
 538 1054 498 1046 462 1028 c 1
 356 979 277 875 249 742 c 1
 384 678 l 1
EndSplineSet
EndChar

StartChar: asterisk
Encoding: 42 42 32
Width: 1091
VWidth: 0
GlyphClass: 2
Flags: HW
HStem: 1436 20G<465 616>
VStem: 465 151<1285.88 1456>
LayerCount: 2
UndoRedoHistory
Layer: 1
Undoes
EndUndoes
Redoes
EndRedoes
EndUndoRedoHistory
Fore
SplineSet
716 618 m 1
 547 930 l 1
 384 627 l 1
 238 715 l 1
 456 995 l 1
 135 1104 l 1
 199 1250 l 1
 495 1100 l 1
 465 1456 l 1
 616 1456 l 1
 603 1106 l 1
 887 1251 l 1
 963 1105 l 1
 634 999 l 1
 864 704 l 1
 716 618 l 1
EndSplineSet
EndChar

StartChar: at
Encoding: 64 64 33
Width: 1811
VWidth: 0
GlyphClass: 2
Flags: HW
HStem: -64 153<713.175 1249.7> 298 133<1220.12 1398.89> 299 166<734.178 933.352> 1041 21G<1136 1157.43> 1369 145<708.854 1201.19>
VStem: 111 191<480.894 969.417> 521 168<509.529 849.713> 1074 134<639.298 764.335> 1539 161<598.481 1048.26>
LayerCount: 2
UndoRedoHistory
Layer: 1
Undoes
EndUndoes
Redoes
EndRedoes
EndUndoRedoHistory
Fore
SplineSet
826 465 m 0
 752 465 689 526 689 651 c 0
 689 883 842 1023 956 1023 c 0
 1021 1023 1074 975 1074 868 c 0
 1074 601 936 465 826 465 c 0
953 -64 m 0
 1127 -64 1324 -24 1482 71 c 1
 1401 200 l 1
 1278 129 1119 89 981 89 c 0
 598 89 302 311 302 726 c 0
 302 1140 608 1369 964 1369 c 0
 1274 1369 1539 1172 1539 837 c 0
 1539 544 1390 431 1290 431 c 0
 1244 431 1208 468 1208 528 c 0
 1208 545 1257 792 1330 1146 c 1
 1189 1146 l 1
 1150 1041 l 1
 1122 1123 1060 1188 919 1177 c 0
 722 1162 521 946 521 668 c 0
 521 432 636 299 793 299 c 0
 888 299 1006 365 1076 506 c 1
 1067 362 1167 298 1275 298 c 0
 1521 298 1700 511 1700 832 c 0
 1700 1290 1338 1514 966 1514 c 0
 534 1514 111 1244 111 721 c 0
 111 214 516 -64 953 -64 c 0
EndSplineSet
EndChar

StartChar: b
Encoding: 98 98 34
Width: 1207
VWidth: 0
GlyphClass: 2
Flags: HW
HStem: -22 186<413.168 696.536> 862 186<537.883 769.356>
VStem: 170 242<175.077 187 511 715.737> 865 248<352.393 751.789>
LayerCount: 2
UndoRedoHistory
Layer: 1
Undoes
EndUndoes
Redoes
EndRedoes
EndUndoRedoHistory
Fore
SplineSet
564 164 m 0
 510 164 460 171 412 187 c 1
 412 511 l 2
 412 740 534 862 667 862 c 0
 784 862 865 728 865 561 c 0
 865 281 684 164 564 164 c 0
573 -22 m 0
 828 -22 1113 175 1113 565 c 0
 1113 881 911 1048 709 1048 c 0
 585 1048 487 1005 412 905 c 1
 412 1470 l 1
 170 1470 l 1
 170 55 l 1
 309 3 442 -22 573 -22 c 0
EndSplineSet
EndChar

StartChar: backslash
Encoding: 92 92 35
Width: 1229
VWidth: 0
GlyphClass: 2
Flags: HW
HStem: 0 21G<784.003 1027>
LayerCount: 2
UndoRedoHistory
Layer: 1
Undoes
EndUndoes
Redoes
EndRedoes
EndUndoRedoHistory
Fore
SplineSet
792 0 m 1
 213 1448 l 1
 450 1448 l 1
 1027 0 l 1
 792 0 l 1
EndSplineSet
EndChar

StartChar: bar
Encoding: 124 124 36
Width: 891
VWidth: 0
GlyphClass: 2
Flags: HW
VStem: 358 185<-409 1526>
LayerCount: 2
UndoRedoHistory
Layer: 1
Undoes
EndUndoes
Redoes
EndRedoes
EndUndoRedoHistory
Fore
SplineSet
358 -409 m 1
 358 1526 l 1
 543 1526 l 1
 543 -409 l 1
 358 -409 l 1
EndSplineSet
EndChar

StartChar: braceleft
Encoding: 123 123 37
Width: 1114
VWidth: 0
GlyphClass: 2
Flags: HW
HStem: -456 148<591.209 725> 476 142<161 271.6> 1404 148<596.075 725>
VStem: 346 188<-251.612 -27 169 400.273 695.296 894 1190 1343.37>
LayerCount: 2
UndoRedoHistory
Layer: 1
Undoes
EndUndoes
Redoes
EndRedoes
EndUndoRedoHistory
Fore
SplineSet
725 -456 m 1
 725 -308 l 1
 689 -308 658 -304 634 -295 c 0
 544 -264 534 -154 534 -27 c 0
 534 50 535 155 535 230 c 0
 535 383 484 496 376 547 c 1
 473 599 540 713 540 868 c 2
 541 1207 l 2
 541 1343 594 1400 725 1404 c 1
 725 1552 l 1
 472 1552 346 1440 346 1190 c 1
 347 1141 348 1090 348 1041 c 0
 348 991 350 943 351 894 c 1
 351 739 302 631 161 618 c 1
 161 476 l 1
 321 459 347 343 347 169 c 2
 346 -138 l 2
 346 -367 507 -447 725 -456 c 1
EndSplineSet
EndChar

StartChar: braceright
Encoding: 125 125 38
Width: 973
VWidth: 0
GlyphClass: 2
Flags: HW
HStem: -326 148<190 323.679> 536 142<645.409 753> 1404 148<190 326.228>
VStem: 375 194<-129.757 103 290 469.514 760.372 954 1190 1352.03>
LayerCount: 2
UndoRedoHistory
Layer: 1
Undoes
EndUndoes
Redoes
EndRedoes
EndUndoRedoHistory
Fore
SplineSet
190 -326 m 1
 408 -317 568 -237 569 -8 c 2
 571 335 l 2
 572 455 634 524 753 536 c 1
 755 678 l 1
 614 691 569 799 569 954 c 2
 569 1190 l 2
 569 1440 442 1552 190 1552 c 1
 190 1404 l 1
 322 1400 375 1343 375 1207 c 2
 375 928 l 2
 375 772 440 659 540 607 c 1
 432 556 379 443 379 290 c 2
 379 103 l 2
 379 -107 350 -178 190 -178 c 1
 190 -326 l 1
EndSplineSet
EndChar

StartChar: bracketleft
Encoding: 91 91 39
Width: 918
VWidth: 0
GlyphClass: 2
Flags: HW
HStem: -214 129<516 708> 1340 130<516 708>
VStem: 257 451<-214 -85 1340 1470> 257 259<-85 1340>
LayerCount: 2
UndoRedoHistory
Layer: 1
Undoes
EndUndoes
Redoes
EndRedoes
EndUndoRedoHistory
Fore
SplineSet
257 -214 m 1
 257 1470 l 1
 708 1470 l 1
 708 1340 l 1
 516 1340 l 1
 516 -85 l 1
 708 -85 l 1
 708 -214 l 1
 257 -214 l 1
EndSplineSet
EndChar

StartChar: bracketright
Encoding: 93 93 40
Width: 1115
VWidth: 0
GlyphClass: 2
Flags: HW
HStem: -232 129<176 369> 1340 130<177 369>
VStem: 177 450<-232 -103 1340 1470> 369 258<-103 1340>
LayerCount: 2
UndoRedoHistory
Layer: 1
Undoes
EndUndoes
Redoes
EndRedoes
EndUndoRedoHistory
Fore
SplineSet
176 -232 m 1
 176 -103 l 1
 369 -103 l 1
 369 1340 l 1
 177 1340 l 1
 177 1470 l 1
 627 1470 l 1
 627 -232 l 1
 176 -232 l 1
EndSplineSet
EndChar

StartChar: c
Encoding: 99 99 41
Width: 1023
VWidth: 0
GlyphClass: 2
Flags: HW
HStem: -22 186<482.505 834.602> 862 186<481.189 823.513>
VStem: 104 248<306.68 721.337>
LayerCount: 2
UndoRedoHistory
Layer: 1
Undoes
EndUndoes
Redoes
EndRedoes
EndUndoRedoHistory
Fore
SplineSet
611 -22 m 0
 724 -22 845 5 959 81 c 1
 886 236 l 1
 804 183 713 164 638 164 c 0
 496 164 352 248 352 520 c 0
 352 743 465 862 635 862 c 0
 700 862 785 841 864 798 c 1
 929 960 l 1
 832 1023 718 1048 617 1048 c 0
 344 1048 104 883 104 519 c 0
 104 148 335 -22 611 -22 c 0
EndSplineSet
EndChar

StartChar: colon
Encoding: 58 58 42
Width: 611
VWidth: 0
GlyphClass: 2
Flags: HW
HStem: 0 247<178 433> 779 247<178 433>
VStem: 178 255<0 247 779 1026>
LayerCount: 2
UndoRedoHistory
Layer: 1
Undoes
EndUndoes
Redoes
EndRedoes
EndUndoRedoHistory
Fore
SplineSet
178 779 m 1
 178 1026 l 1
 433 1026 l 1
 433 779 l 1
 178 779 l 1
178 0 m 1
 178 247 l 1
 433 247 l 1
 433 0 l 1
 178 0 l 1
EndSplineSet
EndChar

StartChar: comma
Encoding: 44 44 43
Width: 532
VWidth: 0
GlyphClass: 2
Flags: HW
HStem: -297 552<184 248>
VStem: 94 345
LayerCount: 2
UndoRedoHistory
Layer: 1
Undoes
EndUndoes
Redoes
EndRedoes
EndUndoRedoHistory
Fore
SplineSet
94 -297 m 1
 184 255 l 1
 439 255 l 1
 248 -297 l 1
 94 -297 l 1
EndSplineSet
EndChar

StartChar: d
Encoding: 100 100 44
Width: 1224
VWidth: 0
GlyphClass: 2
Flags: HW
HStem: -22 186<450.088 689.863 1093.23 1174> 862 186<515.182 802.608>
VStem: 106 248<273.055 681.406> 805 242<292.6 498 839 850.581>
LayerCount: 2
UndoRedoHistory
Layer: 1
Undoes
EndUndoes
Redoes
EndRedoes
EndUndoRedoHistory
Fore
SplineSet
847 150 m 1
 897 24 963 -16 1174 -16 c 1
 1206 176 l 1
 1082 176 1047 217 1047 365 c 2
 1047 1470 l 1
 805 1470 l 1
 805 1022 l 1
 747 1039 690 1048 633 1048 c 0
 378 1048 106 841 106 450 c 0
 106 125 330 -22 525 -22 c 0
 652 -22 779 41 847 150 c 1
354 456 m 0
 354 736 510 862 663 862 c 0
 712 862 761 852 805 839 c 1
 805 498 l 2
 805 269 684 164 562 164 c 0
 455 164 354 274 354 456 c 0
EndSplineSet
EndChar

StartChar: dollar
Encoding: 36 36 45
Width: 1255
VWidth: 0
GlyphClass: 2
Flags: HW
HStem: -24 208<434.64 832.974> 1272 208<481.195 889.095>
VStem: 167 258<984.203 1217.2> 608 131<-213 1628> 913 236<268.408 508.295>
LayerCount: 2
UndoRedoHistory
Layer: 1
Undoes
EndUndoes
Redoes
EndRedoes
EndUndoRedoHistory
Fore
SplineSet
608 -213 m 1
 610 1628 l 1
 739 1628 l 1
 739 -213 l 1
 608 -213 l 1
EndSplineSet
Refer: 19 83 N 1 0 0 1 10 0 2
EndChar

StartChar: e
Encoding: 101 101 46
Width: 1071
VWidth: 0
GlyphClass: 2
Flags: HW
HStem: -22 190<486.389 854.433> 867 181<478.234 699.125>
VStem: 104 240<523 712.722> 722 234<650.834 845.327>
LayerCount: 2
UndoRedoHistory
Layer: 1
Undoes
EndUndoes
Redoes
EndRedoes
EndUndoRedoHistory
Fore
SplineSet
344 538 m 2
 344 690 444 867 597 867 c 0
 675 867 722 823 722 758 c 0
 722 644 636 587 344 523 c 1
 344 538 l 2
1023 100 m 1
 935 259 l 1
 849 196 753 168 664 168 c 0
 523 168 400 240 366 359 c 1
 792 425 956 566 956 750 c 0
 956 897 833 1048 608 1048 c 0
 325 1048 104 816 104 514 c 0
 104 173 340 -22 633 -22 c 0
 759 -22 912 3 1023 100 c 1
EndSplineSet
EndChar

StartChar: e.alt
Encoding: 65539 -1 47
Width: 1840
VWidth: 0
GlyphClass: 2
Flags: HW
HStem: -34 167<564.648 922.526> 1061 168<574.664 865.043>
VStem: 176 211<570.656 840.592> 927 191<756.926 995.494>
LayerCount: 2
UndoRedoHistory
Layer: 1
Undoes
EndUndoes
Redoes
EndRedoes
EndUndoRedoHistory
Fore
SplineSet
390 564 m 1
 388 584 387 603 387 622 c 0
 387 852 513 1061 726 1061 c 0
 854 1061 927 982 927 875 c 0
 927 686 693 616 390 564 c 1
720 -34 m 0
 900 -34 1058 43 1197 188 c 1
 1099 313 l 1
 1012 208 875 133 728 133 c 0
 586 133 450 214 403 425 c 1
 790 488 1118 583 1118 870 c 0
 1118 1066 957 1229 724 1229 c 0
 382 1229 176 934 176 595 c 0
 176 195 440 -34 720 -34 c 0
EndSplineSet
EndChar

StartChar: eight
Encoding: 56 56 48
Width: 1254
VWidth: 0
GlyphClass: 2
Flags: HW
HStem: -24 200<476.401 788.332> 1272 208<487.915 776.626>
VStem: 149 259<240.997 498.085> 179 249<965.788 1214.82> 832 243<972.025 1215.84> 858 248<242.774 504.152>
LayerCount: 2
UndoRedoHistory
Layer: 1
Undoes
EndUndoes
Redoes
EndRedoes
EndUndoRedoHistory
Fore
SplineSet
179 1107 m 0
 179 1352 375 1480 627 1480 c 0
 917 1480 1075 1305 1075 1107 c 0
 1075 979.674439553 973.781696088 865.844652961 810.146697259 761.076170624 c 1
 1000.81820841 648.629119387 1106 513.072588037 1106 353 c 0
 1106 156 968 -24 627 -24 c 0
 306 -24 149 135 149 360 c 0
 149 514.320345816 219.609627278 620.32884139 428.751799951 744.026058096 c 1
 316.552138042 803.273503454 179 905.719872504 179 1107 c 0
617.827714763 649.033904711 m 1
 478.773545843 559.795661668 408.000000005 462.668206654 408 367 c 0
 408 259 479 176 629 176 c 0
 796 176 858 259 858 364 c 0
 858 468.333735604 826.450088658 533.027839009 617.827714763 649.033904711 c 1
631.206741688 853.981469304 m 1
 804.252104866 952.210664013 832 1007.6068111 832 1102 c 0
 832 1219 744 1272 631 1272 c 0
 509 1272 428 1211 428 1102 c 0
 428 970.855213655 495.014947476 923.313233073 631.206741688 853.981469304 c 1
EndSplineSet
EndChar

StartChar: equal
Encoding: 61 61 49
Width: 1162
VWidth: 0
GlyphClass: 2
Flags: HW
LayerCount: 2
UndoRedoHistory
Layer: 1
Undoes
EndUndoes
Redoes
EndRedoes
EndUndoRedoHistory
Fore
SplineSet
169 450 m 1
 994 450 l 1
 994 620 l 1
 169 620 l 1
 169 450 l 1
168 853 m 1
 994 853 l 1
 994 1026 l 1
 168 1026 l 1
 168 853 l 1
EndSplineSet
EndChar

StartChar: exclam
Encoding: 33 33 50
Width: 782
VWidth: 0
GlyphClass: 2
Flags: HW
HStem: -12 318<272.5 509.5>
VStem: 226 330<35.5698 258.954> 319 129<498 646.24>
LayerCount: 2
UndoRedoHistory
Layer: 1
Undoes
EndUndoes
Redoes
EndRedoes
EndUndoRedoHistory
Fore
SplineSet
319 498 m 1
 448 498 l 1
 542 1470 l 1
 228 1470 l 1
 319 498 l 1
391 -12 m 0
 295 -12 226 54 226 149 c 0
 226 241 295 306 391 306 c 0
 487 306 556 241 556 146 c 0
 556 52 487 -12 391 -12 c 0
EndSplineSet
EndChar

StartChar: f
Encoding: 102 102 51
Width: 760
VWidth: 0
GlyphClass: 2
Flags: HW
HStem: 1292 188<548.586 696>
VStem: 259 242<1061 1239.13>
LayerCount: 2
UndoRedoHistory
Layer: 1
Undoes
EndUndoes
Redoes
EndRedoes
EndUndoRedoHistory
Fore
SplineSet
501 0 m 1
 501 862 l 1
 731 862 l 1
 731 1026 l 1
 501 1026 l 1
 501 1061 l 2
 501 1223 538 1292 696 1292 c 2
 781 1292 l 1
 781 1480 l 1
 678 1480 l 2
 405 1480 259 1386 259 1096 c 2
 259 1026 l 1
 73 1026 l 1
 73 862 l 1
 259 862 l 1
 259 0 l 1
 501 0 l 1
EndSplineSet
EndChar

StartChar: f.alt
Encoding: 65540 -1 52
Width: 760
VWidth: 0
Flags: HW
HStem: -410 197<101 215.53> 1292 188<548.586 696>
VStem: 259 242<-164.868 -11 1061 1239.13>
LayerCount: 2
UndoRedoHistory
Layer: 1
Undoes
EndUndoes
Redoes
EndRedoes
EndUndoRedoHistory
Fore
SplineSet
101 -410 m 1
 370 -410 501 -273 501 -11 c 2
 501 862 l 1
 731 862 l 1
 731 1026 l 1
 501 1026 l 1
 501 1061 l 2
 501 1223 538 1292 696 1292 c 2
 781 1292 l 1
 781 1480 l 1
 678 1480 l 2
 405 1480 259 1386 259 1096 c 2
 259 1026 l 1
 73 1026 l 1
 73 862 l 1
 259 862 l 1
 259 -19 l 2
 259 -155 210 -213 80 -213 c 1
 101 -410 l 1
EndSplineSet
EndChar

StartChar: five
Encoding: 53 53 53
Width: 1254
VWidth: 0
GlyphClass: 2
Flags: HW
HStem: -24 208<435.507 749.283> 733 196<526.252 765.856> 1257 199<492 996>
VStem: 264 214<851 1257> 863 242<306.965 626.047>
LayerCount: 2
UndoRedoHistory
Layer: 1
Undoes
EndUndoes
Redoes
EndRedoes
EndUndoRedoHistory
Fore
SplineSet
621 -24 m 0
 476 -24 322 29 196 133 c 1
 286 322 l 1
 412 224 520 184 606 184 c 0
 763 184 863 313 863 459 c 0
 863 639 757 731 644 733 c 1
 571 733 506 717 439 644 c 1
 264 644 l 1
 264 1456 l 1
 996 1456 l 1
 996 1257 l 1
 492 1257 l 1
 478 851 l 1
 520 885 588 929 711 929 c 0
 900 929 1105 806 1105 466 c 0
 1105 138 871 -24 621 -24 c 0
EndSplineSet
EndChar

StartChar: four
Encoding: 52 52 54
Width: 1254
VWidth: 0
GlyphClass: 2
Flags: HW
HStem: 0 21G<772 982> 327 191<415 772 982 1179> 1436 20G<512.311 743>
VStem: 772 210<0 327 518 868>
LayerCount: 2
UndoRedoHistory
Layer: 1
Undoes
EndUndoes
Redoes
EndRedoes
EndUndoRedoHistory
Fore
SplineSet
982 868 m 1
 982 518 l 1
 1179 518 l 1
 1179 327 l 1
 982 327 l 1
 982 0 l 1
 772 0 l 1
 772 327 l 1
 154 327 l 1
 154 504 l 1
 520 1456 l 1
 743 1456 l 1
 415 518 l 1
 772 518 l 1
 772 868 l 1
 982 868 l 1
EndSplineSet
EndChar

StartChar: four.alt
Encoding: 65541 -1 55
Width: 1254
VWidth: 0
Flags: HW
HStem: 0 21G<755 982> 327 184<344 755 982 1179> 1436 20G<707.269 982>
VStem: 755 227<0 327 511 1167>
LayerCount: 2
UndoRedoHistory
Layer: 1
Undoes
EndUndoes
Redoes
EndRedoes
EndUndoRedoHistory
Fore
SplineSet
344 511 m 1
 755 511 l 1
 755 1167 l 1
 579 882 l 1
 344 511 l 1
755 0 m 1
 755 327 l 1
 114 327 l 1
 114 504 l 1
 720 1456 l 1
 982 1456 l 1
 982 511 l 1
 1179 511 l 1
 1179 327 l 1
 982 327 l 1
 982 0 l 1
 755 0 l 1
EndSplineSet
EndChar

StartChar: g
Encoding: 103 103 56
Width: 1186
VWidth: 0
GlyphClass: 2
Flags: HW
HStem: -522 195<320.943 685.525> 0 191<450.609 681.697> 862 186<506.797 802.782>
VStem: 104 248<301.51 687.366> 804 242<-201.375 36 334.274 545 837 850.049>
LayerCount: 2
UndoRedoHistory
Layer: 1
Undoes
EndUndoes
Redoes
EndRedoes
EndUndoRedoHistory
Fore
SplineSet
559 191 m 0
 448 191 352 318 352 470 c 0
 352 725 488 862 657 862 c 0
 710 862 768 851 804 837 c 1
 804 545 l 2
 804 352 707 191 559 191 c 0
549 -522 m 0
 822 -522 1046 -320 1046 36 c 2
 1046 942 l 1
 950 998 783 1048 656 1048 c 0
 323 1048 104 806 104 460 c 0
 104 199 286 0 530 0 c 0
 626 0 736 36 804 129 c 1
 804 -10 l 2
 804 -251 666 -327 526 -327 c 0
 420 -327 308 -287 214 -227 c 1
 173 -429 l 1
 291 -492 438 -522 549 -522 c 0
EndSplineSet
EndChar

StartChar: grave
Encoding: 96 96 57
Width: 1054
VWidth: 0
GlyphClass: 2
Flags: HW
HStem: 2064 318
VStem: -94 519
LayerCount: 2
UndoRedoHistory
Layer: 1
Undoes
EndUndoes
Redoes
EndRedoes
EndUndoRedoHistory
Fore
SplineSet
236 2064 m 1
 -94 2382 l 1
 179 2382 l 1
 425 2064 l 1
 236 2064 l 1
EndSplineSet
EndChar

StartChar: greater
Encoding: 62 62 58
Width: 1217
VWidth: 0
GlyphClass: 2
Flags: HW
LayerCount: 2
UndoRedoHistory
Layer: 1
Undoes
EndUndoes
Redoes
EndRedoes
EndUndoRedoHistory
Fore
SplineSet
172 1092 m 1
 1121 658 l 1
 1121 531 l 1
 168 78 l 1
 168 279 l 1
 803 591 l 1
 172 890 l 1
 172 1092 l 1
EndSplineSet
EndChar

StartChar: h
Encoding: 104 104 59
Width: 1238
VWidth: 0
GlyphClass: 2
Flags: HW
HStem: -16 193<1086.62 1184> 862 186<502.067 749.489>
VStem: 160 242<595 766.292> 818 242<207.319 352 606 787.112>
LayerCount: 2
UndoRedoHistory
Layer: 1
Undoes
EndUndoes
Redoes
EndRedoes
EndUndoRedoHistory
Fore
SplineSet
1184 -16 m 1
 1218 177 l 1
 1196 177 l 2
 1089 177 1060 224 1060 352 c 2
 1060 608 l 2
 1060 875 915 1048 688 1048 c 0
 597 1048 482 1015 402 931 c 1
 402 1470 l 1
 160 1470 l 1
 160 0 l 1
 402 0 l 1
 402 595 l 2
 402 734 468 862 630 862 c 0
 758 862 818 759 818 606 c 2
 818 298 l 2
 818 88 904 -16 1139 -16 c 2
 1184 -16 l 1
EndSplineSet
EndChar

StartChar: hyphen
Encoding: 45 45 60
Width: 1115
VWidth: 0
GlyphClass: 2
Flags: HW
HStem: 640 197<168 947>
LayerCount: 2
UndoRedoHistory
Layer: 1
Undoes
EndUndoes
Redoes
EndRedoes
EndUndoRedoHistory
Fore
SplineSet
168 640 m 1
 168 837 l 1
 947 837 l 1
 947 640 l 1
 168 640 l 1
EndSplineSet
EndChar

StartChar: i
Encoding: 105 105 61
Width: 711
VWidth: 0
GlyphClass: 2
Flags: HW
HStem: 1188 292<180.85 426.799>
VStem: 142 324<1226.5 1439.12> 177 242<202.551 337>
LayerCount: 2
UndoRedoHistory
Layer: 1
Undoes
EndUndoes
Redoes
EndRedoes
EndUndoRedoHistory
Fore
SplineSet
303 1188 m 0
 402 1188 466 1242 466 1333 c 0
 466 1424 402 1480 305 1480 c 0
 205 1480 142 1426 142 1334 c 0
 142 1242 205 1188 303 1188 c 0
727 33 m 1
 696 203 l 1
 524 155 419 158 419 334 c 2
 419 1026 l 1
 177 1026 l 1
 177 337 l 2
 177 -26 467 -70 727 33 c 1
EndSplineSet
EndChar

StartChar: j
Encoding: 106 106 62
Width: 661
VWidth: 0
GlyphClass: 2
Flags: HW
HStem: -499 176<-46.1533 195.588> 1188 292<249.85 495.799>
VStem: 211 324<1226.5 1439.12> 240 242<-281.254 -90>
LayerCount: 2
UndoRedoHistory
Layer: 1
Undoes
EndUndoes
Redoes
EndRedoes
EndUndoRedoHistory
Fore
SplineSet
112 -499 m 0
 418 -499 482 -325 482 -93 c 2
 482 1026 l 1
 240 1026 l 1
 240 -90 l 2
 240 -280 188 -323 90 -323 c 0
 22 -323 -43 -305 -43 -305 c 1
 -64 -475 l 1
 -64 -475 9 -499 112 -499 c 0
372 1188 m 0
 471 1188 535 1242 535 1333 c 0
 535 1424 471 1480 374 1480 c 0
 274 1480 211 1426 211 1334 c 0
 211 1242 274 1188 372 1188 c 0
EndSplineSet
EndChar

StartChar: k
Encoding: 107 107 63
Width: 1171
VWidth: 0
GlyphClass: 2
Flags: HW
LayerCount: 2
UndoRedoHistory
Layer: 1
Undoes
EndUndoes
Redoes
EndRedoes
EndUndoRedoHistory
Fore
SplineSet
1129 0 m 1
 633 538 l 1
 1117 1026 l 1
 843 1026 l 1
 404 587 l 1
 404 1470 l 1
 162 1470 l 1
 162 0 l 1
 404 0 l 1
 404 481.545816733 l 1
 855 0 l 1
 1129 0 l 1
EndSplineSet
EndChar

StartChar: k.alt
Encoding: 65542 -1 64
Width: 1171
VWidth: 0
GlyphClass: 2
Flags: HW
LayerCount: 2
UndoRedoHistory
Layer: 1
Undoes
EndUndoes
Redoes
EndRedoes
EndUndoRedoHistory
Fore
SplineSet
1167 195 m 1
 1054 165 1038 155 932 290 c 1
 762 539 l 1
 1046 965 l 1
 824 1026 l 1
 404 389 l 1
 404 1470 l 1
 162 1470 l 1
 162 102 l 2
 162 -27 314 -65 390 42 c 2
 618 362 l 1
 780 123 l 1
 895 -42 1012 -42 1130 3 c 1
 1167 195 l 1
EndSplineSet
EndChar

StartChar: l
Encoding: 108 108 65
Width: 735
VWidth: 0
GlyphClass: 2
Flags: HW
VStem: 162 242<215.492 337>
LayerCount: 2
UndoRedoHistory
Layer: 1
Undoes
EndUndoes
Redoes
EndRedoes
EndUndoRedoHistory
Fore
SplineSet
753 33 m 1
 722 203 l 1
 520 155 404 158 404 334 c 2
 404 1470 l 1
 162 1470 l 1
 162 337 l 2
 162 -26 473 -70 753 33 c 1
EndSplineSet
EndChar

StartChar: less
Encoding: 60 60 66
Width: 1217
VWidth: 0
GlyphClass: 2
Flags: HW
LayerCount: 2
UndoRedoHistory
Layer: 1
Undoes
EndUndoes
Redoes
EndRedoes
EndUndoRedoHistory
Fore
SplineSet
1045 84 m 1
 96 518 l 1
 96 645 l 1
 1049 1098 l 1
 1049 897 l 1
 414 585 l 1
 1045 286 l 1
 1045 84 l 1
EndSplineSet
EndChar

StartChar: m
Encoding: 109 109 67
Width: 1871
VWidth: 0
GlyphClass: 2
Flags: HW
HStem: -16 192<1721.18 1821> 862 186<512.881 749.699 1146.36 1380.72>
VStem: 182 242<591 763.126> 821 242<606 771.779> 1452 242<206.549 357 606 779.227>
LayerCount: 2
UndoRedoHistory
Layer: 1
Undoes
EndUndoes
Redoes
EndRedoes
EndUndoRedoHistory
Fore
SplineSet
1821 -16 m 1
 1855 176 l 1
 1830 176 l 2
 1716 176 1694 237 1694 357 c 2
 1694 608 l 2
 1694 875 1552 1048 1316 1048 c 0
 1222 1048 1077 1008 995 862 c 1
 947 964 849 1048 703 1048 c 0
 579 1048 444 997 383 881 c 1
 370 930 321 998 283 1026 c 1
 56 937 l 1
 151 858 182 742 182 641 c 2
 182 0 l 1
 424 0 l 1
 424 591 l 2
 424 747 508 862 632 862 c 0
 740 862 821 779 821 606 c 2
 821 0 l 1
 1063 0 l 1
 1063 614 l 2
 1063 762 1154 862 1260 862 c 0
 1390 862 1452 759 1452 606 c 2
 1452 339 l 2
 1452 117 1525 -16 1791 -16 c 2
 1821 -16 l 1
EndSplineSet
EndChar

StartChar: n
Encoding: 110 110 68
Width: 1257
VWidth: 0
GlyphClass: 2
Flags: HW
HStem: -16 192<1114.22 1207> 862 186<533.691 775.549>
VStem: 185 242<592 754.246> 838 242<203.797 368 604 798.657>
LayerCount: 2
UndoRedoHistory
Layer: 1
Undoes
EndUndoes
Redoes
EndRedoes
EndUndoRedoHistory
Fore
SplineSet
1241 176 m 1
 1224 176 l 2
 1103 176 1080 236 1080 345 c 2
 1080 608 l 2
 1080 875 949 1048 720 1048 c 0
 563 1048 435 967 386 873 c 1
 374 919 330 989 282 1026 c 1
 56 937 l 1
 143 860 185 764 185 643 c 2
 185 0 l 1
 427 0 l 1
 427 592 l 2
 427 767 548 862 661 862 c 0
 795 862 838 757 838 604 c 2
 838 368 l 2
 838 121 911 -16 1172 -16 c 2
 1207 -16 l 1
 1241 176 l 1
EndSplineSet
EndChar

StartChar: n.alt
Encoding: 65543 -1 69
Width: 2297
VWidth: 0
GlyphClass: 2
Flags: HW
HStem: 1056 163<693.058 1082.88>
VStem: 312 193<752 887.625> 1200 193<126.037 286 664 931.847>
LayerCount: 2
UndoRedoHistory
Layer: 1
Undoes
EndUndoes
Redoes
EndRedoes
EndUndoRedoHistory
Fore
SplineSet
1453 -42 m 1
 1494 106 l 1
 1406 124 1393 154 1393 286 c 2
 1393 303 l 1
 1396 652 l 1
 1396 664 l 2
 1396 1005 1293 1219 923 1219 c 0
 705 1219 598 1145 503 1023 c 1
 477 1190 l 1
 281 1190 l 1
 289 1133 312 907 312 807 c 2
 312 -14 l 1
 505 -14 l 1
 505 752 l 2
 505 924 687 1056 887 1056 c 0
 1161 1056 1202 914 1202 673 c 2
 1202 657 l 1
 1200 298 l 1
 1200 277 l 2
 1200 59 1232 -16 1453 -42 c 1
EndSplineSet
EndChar

StartChar: nine
Encoding: 57 57 70
Width: 1254
VWidth: 0
GlyphClass: 2
Flags: HW
HStem: 523 191<516.188 708.566> 1272 208<499.155 805.732>
VStem: 151 237<843.069 1163.45> 911 219<836.037 1163.11>
LayerCount: 2
UndoRedoHistory
Layer: 1
Undoes
EndUndoes
Redoes
EndRedoes
EndUndoRedoHistory
Fore
SplineSet
656 714 m 0
 527 714 388 815 388 1011 c 0
 388 1193 525 1272 652 1272 c 0
 780 1272 911 1191 911 1009 c 0
 911 812 781 714 656 714 c 0
597 -119 m 1
 952 511 l 1
 1035 649 1130 867 1130 992 c 0
 1130 1321 874 1480 643 1480 c 0
 413 1480 151 1326 151 997 c 0
 151 731 367 523 623 523 c 0
 675 523 698 523 709 529 c 1
 411 -6 l 1
 597 -119 l 1
EndSplineSet
EndChar

StartChar: nine.alt
Encoding: 65544 -1 71
Width: 1254
VWidth: 0
GlyphClass: 2
Flags: HW
HStem: 523 191<516.188 708.566> 1272 208<499.155 805.732>
VStem: 151 237<843.069 1163.45> 911 219<836.037 1163.11>
LayerCount: 2
UndoRedoHistory
Layer: 1
Undoes
EndUndoes
Redoes
EndRedoes
EndUndoRedoHistory
Fore
SplineSet
656 714 m 0
 527 714 388 815 388 1011 c 0
 388 1193 525 1272 652 1272 c 0
 780 1272 911 1191 911 1009 c 0
 911 812 781 714 656 714 c 0
597 -119 m 1
 952 511 l 1
 1035 649 1130 867 1130 992 c 0
 1130 1321 874 1480 643 1480 c 0
 413 1480 151 1326 151 997 c 0
 151 731 367 523 623 523 c 0
 675 523 698 523 709 529 c 1
 411 -6 l 1
 597 -119 l 1
EndSplineSet
EndChar

StartChar: numbersign
Encoding: 35 35 72
Width: 2114
VWidth: 0
GlyphClass: 2
Flags: HW
HStem: 372 147<361 639 815 1068 1248 1515> 843 145<440 718 897 1149 1327 1589> 1450 20G<820.515 979 1251.64 1415>
LayerCount: 2
UndoRedoHistory
Layer: 1
Undoes
EndUndoes
Redoes
EndRedoes
EndUndoRedoHistory
Fore
SplineSet
815 519 m 1
 1095 519 l 1
 1149 843 l 1
 873 843 l 1
 815 519 l 1
545 -127 m 1
 639 372 l 1
 348 372 l 1
 361 519 l 1
 664 519 l 1
 682 630 700 734 718 843 c 1
 424 843 l 1
 440 988 l 1
 740 988 l 1
 824 1470 l 1
 979 1470 l 1
 897 988 l 1
 1174 988 l 1
 1255 1470 l 1
 1415 1470 l 1
 1327 988 l 1
 1606 988 l 1
 1589 843 l 1
 1303 843 l 1
 1248 519 l 1
 1532 519 l 1
 1515 372 l 1
 1225 372 l 1
 1137 -127 l 1
 984 -127 l 1
 1068 372 l 1
 792 372 l 1
 705 -127 l 1
 545 -127 l 1
EndSplineSet
EndChar

StartChar: o
Encoding: 111 111 73
Width: 1202
VWidth: 0
GlyphClass: 2
Flags: HW
HStem: -22 186<462.237 738.284> 862 186<461.245 737.124>
VStem: 104 248<291.588 739.223> 850 248<292.01 733.795>
LayerCount: 2
UndoRedoHistory
Layer: 1
Undoes
EndUndoes
Redoes
EndRedoes
EndUndoRedoHistory
Fore
SplineSet
599 -22 m 0
 288 -22 104 195 104 512 c 0
 104 830 287 1048 598 1048 c 0
 913 1048 1098 832 1098 513 c 0
 1098 196 915 -22 599 -22 c 0
601 164 m 0
 771 164 850 299 850 512 c 0
 850 725 770 862 599 862 c 0
 428 862 352 725 352 512 c 0
 352 299 429 164 601 164 c 0
EndSplineSet
EndChar

StartChar: one
Encoding: 49 49 74
Width: 846
VWidth: 0
GlyphClass: 2
Flags: HW
VStem: 180 436
LayerCount: 2
UndoRedoHistory
Layer: 1
Undoes
EndUndoes
Redoes
EndRedoes
EndUndoRedoHistory
Fore
SplineSet
366 0 m 1
 616 0 l 1
 616 1456 l 1
 180 1456 l 1
 180 1241 l 1
 366 1241 l 1
 366 0 l 1
EndSplineSet
EndChar

StartChar: one.alt
Encoding: 65545 -1 75
Width: 999
VWidth: 0
Flags: HW
LayerCount: 2
UndoRedoHistory
Layer: 1
Undoes
EndUndoes
Redoes
EndRedoes
EndUndoRedoHistory
Fore
SplineSet
471 0 m 1
 721 0 l 1
 721 1456 l 1
 477 1456 l 1
 410 1405 251 1322 135 1270 c 1
 195 1099 l 1
 301 1143 405 1190 471 1241 c 1
 471 0 l 1
EndSplineSet
EndChar

StartChar: p
Encoding: 112 112 76
Width: 1210
VWidth: 0
GlyphClass: 2
Flags: HW
HStem: -22 186<417.658 717.851> 862 186<542.704 775.615>
VStem: 173 242<175.278 188 490 708.816> 870 248<343.407 757.88>
LayerCount: 2
UndoRedoHistory
Layer: 1
Undoes
EndUndoes
Redoes
EndRedoes
EndUndoRedoHistory
Fore
SplineSet
415 188 m 1
 415 490 l 2
 415 729 532 862 663 862 c 0
 793 862 870 731 870 572 c 0
 870 322 760 164 553 164 c 0
 499 164 462 173 415 188 c 1
173 -532 m 1
 415 -532 l 1
 415 4 l 1
 482 -14 521 -22 589 -22 c 0
 910 -22 1118 221 1118 574 c 0
 1118 923 898 1048 724 1048 c 0
 543 1048 433 964 374 849 c 1
 353 922 299 1005 270 1026 c 1
 44 937 l 1
 80 906 173 814 173 651 c 2
 173 -532 l 1
EndSplineSet
EndChar

StartChar: parenleft
Encoding: 40 40 77
Width: 821
VWidth: 0
GlyphClass: 2
Flags: HW
VStem: 184 272<348.466 994.356>
LayerCount: 2
UndoRedoHistory
Layer: 1
Undoes
EndUndoes
Redoes
EndRedoes
EndUndoRedoHistory
Fore
SplineSet
714 1564 m 1
 487 1564 l 1
 284 1192 184 983 184 675 c 0
 184 359 291 143 498 -244 c 1
 725 -244 l 1
 548 145 456 361 456 678 c 0
 456 985 540 1192 714 1564 c 1
EndSplineSet
EndChar

StartChar: parenright
Encoding: 41 41 78
Width: 821
VWidth: 0
GlyphClass: 2
Flags: HW
VStem: 375 272<325.644 971.534>
LayerCount: 2
UndoRedoHistory
Layer: 1
Undoes
EndUndoes
Redoes
EndRedoes
EndUndoRedoHistory
Fore
SplineSet
117 -244 m 1
 344 -244 l 1
 547 128 647 337 647 645 c 0
 647 961 540 1177 333 1564 c 1
 106 1564 l 1
 283 1175 375 959 375 642 c 0
 375 335 291 128 117 -244 c 1
EndSplineSet
EndChar

StartChar: percent
Encoding: 37 37 79
Width: 2294
VWidth: 0
GlyphClass: 2
Flags: HW
HStem: -22 156<1676.07 1936.21> 581 156<370.069 630.213> 717 155<1674.9 1933.8> 1320 155<368.903 627.801>
VStem: 78 196<836.046 1215.93> 724 186<840.844 1220.69> 1384 196<233.046 612.933> 2030 186<237.844 617.688>
LayerCount: 2
UndoRedoHistory
Layer: 1
Undoes
EndUndoes
Redoes
EndRedoes
EndUndoRedoHistory
Fore
SplineSet
567 0 m 1
 778 0 l 1
 1741 1470 l 1
 1539 1470 l 1
 567 0 l 1
1798 -22 m 0
 2040 -22 2216 147 2216 427 c 0
 2216 692 2071 872 1804 872 c 0
 1561 872 1384 703 1384 422 c 0
 1384 183 1520 -22 1798 -22 c 0
1806 134 m 0
 1648 134 1580 263 1580 424 c 0
 1580 584 1649 717 1807 717 c 0
 1952 717 2030 600 2030 428 c 0
 2030 269 1961 134 1806 134 c 0
500 737 m 0
 342 737 274 866 274 1027 c 0
 274 1187 343 1320 501 1320 c 0
 646 1320 724 1203 724 1031 c 0
 724 872 655 737 500 737 c 0
492 581 m 0
 734 581 910 750 910 1030 c 0
 910 1295 765 1475 498 1475 c 0
 255 1475 78 1306 78 1025 c 0
 78 786 214 581 492 581 c 0
EndSplineSet
EndChar

StartChar: period
Encoding: 46 46 80
Width: 658
VWidth: 0
GlyphClass: 2
Flags: HW
HStem: -12 318<210.5 447.5>
VStem: 164 330<35.5698 258.954>
LayerCount: 2
UndoRedoHistory
Layer: 1
Undoes
EndUndoes
Redoes
EndRedoes
EndUndoRedoHistory
Fore
SplineSet
329 -12 m 0
 233 -12 164 54 164 149 c 0
 164 241 233 306 329 306 c 0
 425 306 494 241 494 146 c 0
 494 52 425 -12 329 -12 c 0
EndSplineSet
EndChar

StartChar: plus
Encoding: 43 43 81
Width: 1354
VWidth: 0
GlyphClass: 2
Flags: HW
HStem: 611 184<152 585 781 1202>
VStem: 587 194<135 611 795 1272>
LayerCount: 2
UndoRedoHistory
Layer: 1
Undoes
EndUndoes
Redoes
EndRedoes
EndUndoRedoHistory
Fore
SplineSet
585 135 m 1
 585 611 l 1
 152 611 l 1
 152 795 l 1
 587 795 l 1
 587 1272 l 1
 781 1272 l 1
 781 795 l 1
 1202 795 l 1
 1202 611 l 1
 779 611 l 1
 779 135 l 1
 585 135 l 1
EndSplineSet
EndChar

StartChar: q
Encoding: 113 113 82
Width: 1247
VWidth: 0
GlyphClass: 2
Flags: HW
HStem: -22 186<452.729 678.689> 862 186<516.972 813.991>
VStem: 104 248<283.156 674.665> 816 242<328.697 529 838 850.277>
LayerCount: 2
UndoRedoHistory
Layer: 1
Undoes
EndUndoes
Redoes
EndRedoes
EndUndoRedoHistory
Fore
SplineSet
559 164 m 0
 448 164 352 302 352 454 c 0
 352 709 488 862 657 862 c 0
 710 862 780 852 816 838 c 1
 816 529 l 2
 816 336 707 164 559 164 c 0
1087 -512 m 2
 1369 -405 l 1
 1320 -217 l 1
 1058 -308 l 1
 1058 942 l 1
 962 998 783 1048 656 1048 c 0
 323 1048 104 790 104 444 c 0
 104 183 286 -22 530 -22 c 0
 626 -22 748 14 816 107 c 1
 816 -351 l 2
 816 -489 911 -579 1087 -512 c 2
EndSplineSet
EndChar

StartChar: question
Encoding: 63 63 83
Width: 957
VWidth: 0
GlyphClass: 2
Flags: HW
HStem: -12 318<260.5 497.5> 1252 228<200.052 543.227>
VStem: 214 330<35.5698 258.954> 583 277<1005.58 1211.61>
LayerCount: 2
UndoRedoHistory
Layer: 1
Undoes
EndUndoes
Redoes
EndRedoes
EndUndoRedoHistory
Fore
SplineSet
319 423 m 1
 433 423 l 1
 490 776 860 781 860 1137 c 0
 860 1377 676 1480 463 1480 c 0
 363 1480 250 1459 147 1416 c 1
 178 1205 l 1
 252 1233 343 1252 409 1252 c 0
 503 1252 583 1212 583 1109 c 0
 583 963 319 887 319 423 c 1
379 -12 m 0
 283 -12 214 54 214 149 c 0
 214 241 283 306 379 306 c 0
 475 306 544 241 544 146 c 0
 544 52 475 -12 379 -12 c 0
EndSplineSet
EndChar

StartChar: quotedbl
Encoding: 34 34 84
Width: 815
VWidth: 0
GlyphClass: 2
Flags: HW
HStem: 908 572<170 319 508 657>
VStem: 170 149<908 1103.24> 508 149<908 1103.24>
LayerCount: 2
UndoRedoHistory
Layer: 1
Undoes
EndUndoes
Redoes
EndRedoes
EndUndoRedoHistory
Fore
SplineSet
170 908 m 1
 128 1480 l 1
 349 1480 l 1
 319 908 l 1
 170 908 l 1
508 908 m 1
 466 1480 l 1
 687 1480 l 1
 657 908 l 1
 508 908 l 1
EndSplineSet
EndChar

StartChar: quotesingle
Encoding: 39 39 85
Width: 477
VWidth: 0
GlyphClass: 2
Flags: HW
HStem: 908 572<170 319>
VStem: 170 149<908 1103.24>
LayerCount: 2
UndoRedoHistory
Layer: 1
Undoes
EndUndoes
Redoes
EndRedoes
EndUndoRedoHistory
Fore
SplineSet
170 908 m 1
 128 1480 l 1
 349 1480 l 1
 319 908 l 1
 170 908 l 1
EndSplineSet
EndChar

StartChar: r
Encoding: 114 114 86
Width: 855
VWidth: 0
GlyphClass: 2
Flags: HW
HStem: 0 21G<183 425> 831 213<528.668 787.299> 1006 20G<229.213 299.5>
VStem: 183 242<0 718.012>
LayerCount: 2
UndoRedoHistory
Layer: 1
Undoes
EndUndoes
Redoes
EndRedoes
EndUndoRedoHistory
Fore
SplineSet
183 0 m 1
 183 652 l 2
 183 801 103 898 54 937 c 1
 280 1026 l 1
 319 988 355 952 384 864 c 1
 444 993 563 1044 671 1044 c 0
 751 1044 792 1027 804 1022 c 1
 786 815 l 1
 742 826 705 831 670 831 c 0
 479 831 425 648 425 566 c 2
 425 0 l 1
 183 0 l 1
EndSplineSet
EndChar

StartChar: s
Encoding: 115 115 87
Width: 919
VWidth: 0
GlyphClass: 2
Flags: HW
HStem: -22 186<262.772 592.17> 862 186<368.872 710.08>
VStem: 122 231<687.354 842.143> 612 221<185.399 363.689>
LayerCount: 2
UndoRedoHistory
Layer: 1
Undoes
EndUndoes
Redoes
EndRedoes
EndUndoRedoHistory
Fore
SplineSet
482 -22 m 0
 330 -22 194 34 133 67 c 1
 185 242 l 1
 220 224 348 164 482 164 c 0
 579 164 612 218 612 275 c 0
 612 352 564 383 407 441 c 1
 190 513 122 610 122 754 c 0
 122 882 212 1048 469 1048 c 0
 650 1048 768 988 795 973 c 1
 739 806 l 1
 652 844 566 862 494 862 c 0
 411 862 353 835 353 769 c 0
 353 711 395 668 523 625 c 1
 747 554 832 469 833 304 c 1
 833 107 716 -22 482 -22 c 0
EndSplineSet
EndChar

StartChar: s.alt
Encoding: 65546 -1 88
Width: 1726
VWidth: 0
GlyphClass: 2
Flags: HW
HStem: -46 162<445.24 836.531> 1061 164<469.6 871.752>
VStem: 210 202<792.275 1005.85> 900 192<180.361 411.835>
LayerCount: 2
UndoRedoHistory
Layer: 1
Undoes
EndUndoes
Redoes
EndRedoes
EndUndoRedoHistory
Fore
SplineSet
699 -46 m 0
 900 -46 1092 45 1092 318 c 0
 1092 562 867 627 696 685 c 0
 596 719 412 752 412 894 c 0
 412 1020 519 1061 637 1061 c 0
 756 1061 893 1018 957 976 c 1
 1012 1119 l 1
 897 1189 762 1225 637 1225 c 0
 422 1225 210 1120 210 890 c 0
 210 654 409 586 589 528 c 0
 703 491 900 459 900 304 c 0
 900 160 796 116 674 116 c 0
 532 116 354 184 266 251 c 1
 210 90 l 1
 335 13 534 -46 699 -46 c 0
EndSplineSet
EndChar

StartChar: semicolon
Encoding: 59 59 89
Width: 679
VWidth: 0
GlyphClass: 2
Flags: HW
HStem: 779 247<246 501>
VStem: 246 255<213.568 255 779 1026>
LayerCount: 2
UndoRedoHistory
Layer: 1
Undoes
EndUndoes
Redoes
EndRedoes
EndUndoRedoHistory
Fore
SplineSet
156 -297 m 1
 246 255 l 1
 501 255 l 1
 310 -297 l 1
 156 -297 l 1
246 779 m 1
 246 1026 l 1
 501 1026 l 1
 501 779 l 1
 246 779 l 1
EndSplineSet
EndChar

StartChar: seven
Encoding: 55 55 90
Width: 1254
VWidth: 0
GlyphClass: 2
Flags: HW
HStem: 0 21G<340 625.871> 1257 199<173 767>
LayerCount: 2
UndoRedoHistory
Layer: 1
Undoes
EndUndoes
Redoes
EndRedoes
EndUndoRedoHistory
Fore
SplineSet
340 0 m 1
 767 1257 l 1
 173 1257 l 1
 173 1456 l 1
 1057 1456 l 1
 1057 1275 l 1
 619 0 l 1
 340 0 l 1
EndSplineSet
EndChar

StartChar: six
Encoding: 54 54 91
Width: 1254
VWidth: 0
GlyphClass: 2
Flags: HW
HStem: -22 202<505.206 787.197> 736 203<512.597 799.959>
VStem: 144 247<293.312 613.871> 903 233<296.732 625.872>
LayerCount: 2
UndoRedoHistory
Layer: 1
Undoes
EndUndoes
Redoes
EndRedoes
EndUndoRedoHistory
Fore
SplineSet
648 180 m 0
 520 180 391 273 391 455 c 0
 391 653 528 736 655 736 c 0
 784 736 903 649 903 453 c 0
 903 272 775 180 648 180 c 0
655 -22 m 0
 885 -22 1136 140 1136 468 c 0
 1136 769 917 937 699 939 c 0
 599 940 499 905 421 832 c 1
 489 1098 665 1263 946 1349 c 1
 870 1551 l 1
 309 1384 144 910 144 537 c 0
 144 134 409 -22 655 -22 c 0
EndSplineSet
EndChar

StartChar: slash
Encoding: 47 47 92
Width: 979
VWidth: 0
GlyphClass: 2
Flags: HW
HStem: 0 21G<96 303.986> 1450 20G<682.905 883>
LayerCount: 2
UndoRedoHistory
Layer: 1
Undoes
EndUndoes
Redoes
EndRedoes
EndUndoRedoHistory
Fore
SplineSet
96 0 m 1
 691 1470 l 1
 883 1470 l 1
 296 0 l 1
 96 0 l 1
EndSplineSet
EndChar

StartChar: t
Encoding: 116 116 94
Width: 876
VWidth: 0
GlyphClass: 2
Flags: HW
HStem: 33 175<649.269 821>
VStem: 226 242<215.492 337>
LayerCount: 2
UndoRedoHistory
Layer: 1
Undoes
EndUndoes
Redoes
EndRedoes
EndUndoRedoHistory
Fore
SplineSet
852 33 m 1
 821 208 l 1
 601 149 468 158 468 334 c 2
 468 862 l 1
 770 862 l 1
 770 1026 l 1
 468 1026 l 1
 468 1343 l 1
 226 1269 l 1
 226 1026 l 1
 22 1026 l 1
 22 862 l 1
 226 862 l 1
 226 337 l 2
 226 -26 532 -70 852 33 c 1
EndSplineSet
EndChar

StartChar: three
Encoding: 51 51 95
Width: 1254
VWidth: 0
GlyphClass: 2
Flags: HW
HStem: -24 208<390.277 769.661> 652 196<435 732.815> 1272 208<383.305 743.312>
VStem: 823 237<927.517 1195.1> 867 236<276.209 561.094>
LayerCount: 2
UndoRedoHistory
Layer: 1
Undoes
EndUndoes
Redoes
EndRedoes
EndUndoRedoHistory
Fore
SplineSet
627 -24 m 0
 446 -24 320 17 184 112 c 1
 276 288 l 1
 396 210 508 184 623 184 c 0
 767 184 867 279 867 410 c 0
 867 619 714 652 540 652 c 2
 435 652 l 1
 435 848 l 1
 526 848 l 2
 645 848 823 872 823 1060 c 0
 823 1207 712 1272 597 1272 c 0
 498 1272 367 1242 283 1160 c 1
 171 1317 l 1
 300 1437 447 1480 602 1480 c 0
 836 1480 1060 1358 1060 1090 c 0
 1060 894 927 795 834 768 c 1
 931 749 1103 658 1103 407 c 0
 1103 132 884 -24 627 -24 c 0
EndSplineSet
EndChar

StartChar: two
Encoding: 50 50 96
Width: 1254
VWidth: 0
GlyphClass: 2
Flags: HW
HStem: 0 200<502 1047> 1272 208<425.692 719.7>
VStem: 811 249<868.122 1183.4>
LayerCount: 2
UndoRedoHistory
Layer: 1
Undoes
EndUndoes
Redoes
EndRedoes
EndUndoRedoHistory
Fore
SplineSet
600 1480 m 0
 831 1480 1060 1336 1060 1027 c 0
 1060 863 949 709 803 543 c 2
 502 200 l 1
 1047 200 l 1
 1047 0 l 1
 195 0 l 1
 195 192 l 1
 640 685 l 2
 757 815 811 940 811 1041 c 0
 811 1178 716 1272 579 1272 c 0
 477 1272 380 1215 290 1112 c 1
 134 1246 l 1
 248 1404 435 1480 600 1480 c 0
EndSplineSet
EndChar

StartChar: u
Encoding: 117 117 97
Width: 1226
VWidth: 0
GlyphClass: 2
Flags: HW
HStem: -16 192<1061.07 1160>
VStem: 153 242<226.696 377 524 988.434> 791 242<240.067 409>
LayerCount: 2
UndoRedoHistory
Layer: 1
Undoes
EndUndoes
Redoes
EndRedoes
EndUndoRedoHistory
Fore
SplineSet
512 -22 m 0
 670 -22 785 50 833 151 c 1
 887 -1 998 -16 1160 -16 c 1
 1192 176 l 1
 1043 176 1033 244 1033 360 c 2
 1033 1026 l 1
 791 1026 l 1
 791 409 l 2
 791 227 699 156 562 165 c 0
 454 172 395 251 395 377 c 2
 395 553 l 2
 395 880 354 1026 354 1026 c 1
 106 996 l 1
 106 996 153 834 153 524 c 2
 153 354 l 2
 153 129 288 -22 512 -22 c 0
EndSplineSet
EndChar

StartChar: u.alt
Encoding: 65547 -1 98
Width: 2087
VWidth: 0
GlyphClass: 2
Flags: HW
HStem: -42 167<563.884 862.555> -19 169<1261.22 1324>
VStem: 267 195<238.819 431 669 1183.53> 1026 193<292.675 476>
LayerCount: 2
UndoRedoHistory
Layer: 1
Undoes
EndUndoes
Redoes
EndRedoes
EndUndoRedoHistory
Fore
SplineSet
679 -42 m 0
 847 -42 974 31 1064 168 c 1
 1096 38 1210 -19 1324 -19 c 1
 1365 150 l 1
 1304 150 1219 186 1219 322 c 2
 1219 1190 l 1
 1026 1190 l 1
 1026 476 l 2
 1026 246 859 125 706 125 c 0
 578 125 462 201 462 431 c 2
 462 685 l 2
 462 1057 415 1190 415 1190 c 1
 222 1190 l 1
 222 1190 267 1009 267 669 c 2
 267 431 l 2
 267 96 474 -42 679 -42 c 0
EndSplineSet
EndChar

StartChar: underscore
Encoding: 95 95 99
Width: 937
VWidth: 0
GlyphClass: 2
Flags: HW
HStem: -481 128<0 949>
LayerCount: 2
UndoRedoHistory
Layer: 1
Undoes
EndUndoes
Redoes
EndRedoes
EndUndoRedoHistory
Fore
SplineSet
0 -481 m 1
 0 -353 l 1
 949 -353 l 1
 949 -481 l 1
 0 -481 l 1
EndSplineSet
EndChar

StartChar: uniF6C3
Encoding: 65548 -1 102
Width: 1065
VWidth: 0
GlyphClass: 2
Flags: HW
HStem: -1062 543
LayerCount: 2
UndoRedoHistory
Layer: 1
Undoes
EndUndoes
Redoes
EndRedoes
EndUndoRedoHistory
Fore
SplineSet
204 -1062 m 1
 357 -1062 l 1
 548 -519 l 1
 329 -519 l 1
 204 -1062 l 1
EndSplineSet
EndChar

StartChar: v
Encoding: 118 118 103
Width: 1036
VWidth: 0
GlyphClass: 2
Flags: HW
HStem: 0 21G<426.852 644.446> 1006 20G<17 277.454 763.247 1019>
LayerCount: 2
UndoRedoHistory
Layer: 1
Undoes
EndUndoes
Redoes
EndRedoes
EndUndoRedoHistory
Fore
SplineSet
435 0 m 1
 17 1026 l 1
 270 1026 l 1
 472 484 l 1
 533 325 l 1
 587 484 l 1
 770 1026 l 1
 1019 1026 l 1
 637 0 l 1
 435 0 l 1
EndSplineSet
EndChar

StartChar: w
Encoding: 119 119 104
Width: 1633
VWidth: 0
GlyphClass: 2
Flags: HW
LayerCount: 2
UndoRedoHistory
Layer: 1
Undoes
EndUndoes
Redoes
EndRedoes
EndUndoRedoHistory
Fore
SplineSet
416.5 0 m 1
 619.5 0 l 1
 819.5 582 l 1
 1029.5 0 l 1
 1232.5 0 l 1
 1613 1026 l 1
 1365 1026 l 1
 1183.5 484 l 1
 1129.5 325 l 1
 1072.5 484 l 1
 900 995 l 1
 728 995 l 1
 570.5 484 l 1
 515.5 325 l 1
 459.5 484 l 1
 275 1026 l 1
 21 1026 l 1
 416.5 0 l 1
EndSplineSet
EndChar

StartChar: x
Encoding: 120 120 105
Width: 1103
VWidth: 0
GlyphClass: 2
Flags: HW
HStem: 0 21G<24.5 304.212 762.342 1078.5> 1006 20G<70 368.313 770.295 1062>
LayerCount: 2
UndoRedoHistory
Layer: 1
Undoes
EndUndoes
Redoes
EndRedoes
EndUndoRedoHistory
Fore
SplineSet
24.5 0 m 1
 419 535 l 1
 70 1026 l 1
 355 1026 l 1
 574 697 l 1
 783 1026 l 1
 1062 1026 l 1
 698 520 l 1
 1078.5 0 l 1
 775.5 0 l 1
 538 361 l 1
 290.5 0 l 1
 24.5 0 l 1
EndSplineSet
EndChar

StartChar: y
Encoding: 121 121 106
Width: 1242
VWidth: 0
GlyphClass: 2
Flags: HW
HStem: -522 195<358.35 719.131> -1 192<482.533 710.738>
VStem: 175 242<257.657 402 594 954.737> 839 242<-203.484 53 297.394 503>
LayerCount: 2
UndoRedoHistory
Layer: 1
Undoes
EndUndoes
Redoes
EndRedoes
EndUndoRedoHistory
Fore
SplineSet
581 -522 m 0
 847 -522 1081 -342 1081 53 c 2
 1081 1026 l 1
 839 1026 l 1
 839 503 l 2
 839 300 760 191 602 191 c 0
 488 191 417 268 417 402 c 2
 417 607 l 2
 417 914 361 1026 361 1026 c 1
 116 996 l 1
 116 996 175 874 175 594 c 2
 175 376 l 2
 175 151 329 -1 558 -1 c 0
 698.189162075 -1 784.523600717 46.6746732019 839 107.415903333 c 1
 839 -10 l 2
 839 -270 682 -327 559 -327 c 0
 456 -327 334 -282 249 -227 c 1
 208 -429 l 1
 325 -490 467 -522 581 -522 c 0
EndSplineSet
EndChar

StartChar: z
Encoding: 122 122 107
Width: 968
VWidth: 0
GlyphClass: 2
Flags: HW
HStem: 0 170<402 894> 856 170<112 584>
LayerCount: 2
UndoRedoHistory
Layer: 1
Undoes
EndUndoes
Redoes
EndRedoes
EndUndoRedoHistory
Fore
SplineSet
106 0 m 1
 106 155 l 1
 584 856 l 1
 112 856 l 1
 112 1026 l 1
 872 1026 l 1
 872 873 l 1
 402 170 l 1
 894 170 l 1
 894 0 l 1
 106 0 l 1
EndSplineSet
EndChar

StartChar: zero
Encoding: 48 48 108
Width: 1254
VWidth: 0
GlyphClass: 2
Flags: HW
HStem: -24 208<499.501 751.509> 1272 208<488.964 754.95>
VStem: 93 238<408.103 1052.48> 923 238<421.949 1047.18>
LayerCount: 2
UndoRedoHistory
Layer: 1
Undoes
EndUndoes
Redoes
EndRedoes
EndUndoRedoHistory
Fore
SplineSet
626 -24 m 0
 279 -24 93 290 93 728 c 0
 93 1172 279 1480 626 1480 c 0
 975 1480 1161 1172 1161 728 c 0
 1161 290 975 -24 626 -24 c 0
625 184 m 0
 820 184 923 413 923 731 c 0
 923 1055 820 1272 625 1272 c 0
 427 1272 331 1055 331 731 c 0
 331 413 427 184 625 184 c 0
EndSplineSet
EndChar
